<svg id="Layer_1" data-name="Layer 1" xmlns="http://www.w3.org/2000/svg" viewBox="0 0 691.72 92.62"><defs><style>.cls-1{fill:#00342b;}</style></defs><title>ASKlogo-long</title><path class="cls-1" d="M106.3,71l-31,92.55H86.8l3.62-10.81h31.74l3.52,10.81h11.56ZM93.77,142.65l12.53-37.83,12.53,37.83H93.77Z" transform="translate(-75.28 -70.89)"/><polygon class="cls-1" points="151.97 0.09 162.63 0.09 162.63 39.92 192.98 0.07 206.25 0.07 171.75 45.36 206.09 92.6 193.09 92.6 162.63 50.77 162.63 92.62 151.97 92.62 151.97 0.09"/><path class="cls-1" d="M177.2,163.49c-7.87,0-19.62-3.71-25.64-17.31l9.33-5.66c4.17,10.22,10.92,11.93,15.86,12.18,9.79,0.5,17.59-6.89,17.44-14.79-0.44-22.68-39.15-14-39-44.27C155.29,81.38,166.46,71,179.49,71c6.84,0,18.18,2.44,24.34,16l-9.44,5.41C191,84,185.25,81.72,179.86,81.74c-8.11,0-13.36,6.26-13.77,12-1.37,19.44,40.06,14.54,38.92,44.13C204.46,152.13,192.81,163.46,177.2,163.49Z" transform="translate(-75.28 -70.89)"/><polygon class="cls-1" points="329.62 92.58 319.13 92.58 319.13 10.48 297.74 10.48 297.74 0.02 351.63 0.02 351.63 10.48 329.62 10.48 329.62 92.58"/><polygon class="cls-1" points="498.15 82.06 498.15 92.58 446.47 92.58 446.47 0.04 457.01 0.04 457.01 82.06 498.15 82.06"/><path class="cls-1" d="M659.2,70.9L628,163.49h11.59l3.64-10.81h31.94l3.54,10.81h11.63Zm-12.61,71.72,12.61-37.85,12.61,37.85H646.58Z" transform="translate(-75.28 -70.89)"/><rect class="cls-1" x="521.91" y="0.05" width="10.56" height="92.53"/><path class="cls-1" d="M471.18,70.9L440,163.5h11.59l3.64-10.81h31.94l3.54,10.81h11.63Zm-12.61,71.73,12.61-37.86,12.61,37.86H458.56Z" transform="translate(-75.28 -70.89)"/><polygon class="cls-1" points="681.2 0.02 681.2 63.24 634.53 0 634.53 92.61 645.08 92.61 645.08 32.96 691.72 92.56 691.72 0.02 681.2 0.02"/><polyline class="cls-1" points="263.25 0.05 263.25 92.58 273.81 92.58 273.81 0.05 263.25 0.05"/></svg>