<?xml version="1.0" encoding="utf-8"?>
<!-- Generator: Adobe Illustrator 19.2.0, SVG Export Plug-In . SVG Version: 6.00 Build 0)  -->
<svg version="1.1" id="Layer_1" xmlns="http://www.w3.org/2000/svg" xmlns:xlink="http://www.w3.org/1999/xlink" x="0px" y="0px"
	 viewBox="0 0 364.5 226.5" style="enable-background:new 0 0 364.5 226.5;" xml:space="preserve">
<style type="text/css">
	.st0{fill:#00342B;}
	.st1{fill:none;stroke:#00342B;stroke-width:4.95;stroke-miterlimit:10;}
</style>
<g>
	<path class="st0" d="M122.6,16.4L97.4,91.7h9.4l2.9-8.8h25.8l2.9,8.8h9.4L122.6,16.4z M112.4,74.7l10.2-30.8l10.2,30.8H112.4z"/>
	<polygon class="st0" points="220.9,16.4 229.5,16.4 229.5,48.8 254.2,16.4 264.9,16.4 236.9,53.2 264.8,91.7 254.3,91.7 
		229.5,57.7 229.5,91.7 220.9,91.7 	"/>
	<path class="st0" d="M180.2,91.7c-6.4,0-15.9-3-20.8-14.1L167,73c3.4,8.3,8.9,9.7,12.9,9.9c8,0.4,14.3-5.6,14.2-12
		c-0.4-18.5-31.8-11.4-31.7-36c0.1-10,9.1-18.5,19.7-18.5c5.6,0,14.8,2,19.8,13.1l-7.7,4.4c-2.7-6.9-7.4-8.7-11.8-8.7
		c-6.6,0-10.8,5.1-11.2,9.8c-1.1,15.8,32.5,11.8,31.6,35.9C202.4,82.4,192.9,91.7,180.2,91.7z"/>
	<line class="st1" x1="84.9" y1="115.1" x2="277.4" y2="115.1"/>
	<g>
		<polyline class="st0" points="8.8,138.9 17.2,138.9 17.2,212.8 8.8,212.8 		"/>
		<polygon class="st0" points="61.7,212.8 53.4,212.8 53.4,147.2 36.3,147.2 36.3,138.9 79.3,138.9 79.3,147.2 61.7,147.2 		"/>
		<polygon class="st0" points="196.2,204.4 196.2,212.8 155,212.8 155,138.9 163.4,138.9 163.4,204.4 		"/>
		<path class="st0" d="M264.6,138.9l-24.9,74h9.2l2.9-8.6h25.5l2.8,8.6h9.3L264.6,138.9z M254.6,196.2l10.1-30.2l10.1,30.2H254.6z"
			/>
		<rect x="222" y="211.7" class="st0" width="1.6" height="1.1"/>
		<rect x="215.2" y="138.9" class="st0" width="8.4" height="73.9"/>
		<path class="st0" d="M114.6,138.9l-24.9,74H99l2.9-8.6h25.5l2.8,8.6h9.3L114.6,138.9z M104.6,196.2l10.1-30.2l10.1,30.2H104.6z"/>
		<polygon class="st0" points="345.4,138.9 345.4,189.3 308.2,138.9 308.2,212.7 316.6,212.7 316.6,165.2 353.8,212.7 353.8,138.9 
					"/>
	</g>
</g>
</svg>
